<svg width="150" height="100%" viewBox="0 0 80 17" fill="none" xmlns="http://www.w3.org/2000/svg">
<path d="M5.844 7.656C6.332 7.784 6.708 8.024 6.972 8.376C7.244 8.728 7.38 9.168 7.38 9.696C7.38 10.44 7.136 11.012 6.648 11.412C6.16 11.804 5.468 12 4.572 12H1.548C1.396 12 1.272 11.956 1.176 11.868C1.088 11.78 1.044 11.664 1.044 11.52V4.02C1.044 3.876 1.088 3.76 1.176 3.672C1.272 3.584 1.396 3.54 1.548 3.54H4.44C5.312 3.54 5.988 3.732 6.468 4.116C6.948 4.5 7.188 5.044 7.188 5.748C7.188 6.204 7.068 6.596 6.828 6.924C6.596 7.252 6.268 7.496 5.844 7.656ZM2.016 7.296H4.296C4.928 7.296 5.404 7.168 5.724 6.912C6.052 6.656 6.216 6.284 6.216 5.796C6.216 4.836 5.576 4.356 4.296 4.356H2.016V7.296ZM4.476 11.184C5.14 11.184 5.628 11.064 5.94 10.824C6.26 10.576 6.42 10.192 6.42 9.672C6.42 8.632 5.772 8.112 4.476 8.112H2.016V11.184H4.476ZM13.4259 6.036C13.5779 6.036 13.6939 6.08 13.7739 6.168C13.8619 6.256 13.9059 6.372 13.9059 6.516V11.592C13.9059 11.728 13.8619 11.84 13.7739 11.928C13.6939 12.016 13.5779 12.06 13.4259 12.06C13.2819 12.06 13.1659 12.02 13.0779 11.94C12.9979 11.852 12.9579 11.74 12.9579 11.604V11.004C12.7739 11.356 12.5139 11.624 12.1779 11.808C11.8499 11.992 11.4779 12.084 11.0619 12.084C10.3659 12.084 9.84194 11.892 9.48994 11.508C9.13794 11.116 8.96194 10.54 8.96194 9.78V6.516C8.96194 6.372 9.00594 6.256 9.09394 6.168C9.18194 6.08 9.30194 6.036 9.45394 6.036C9.60594 6.036 9.72194 6.08 9.80194 6.168C9.88994 6.256 9.93394 6.372 9.93394 6.516V9.756C9.93394 10.276 10.0379 10.66 10.2459 10.908C10.4539 11.148 10.7819 11.268 11.2299 11.268C11.7419 11.268 12.1539 11.104 12.4659 10.776C12.7779 10.44 12.9339 10 12.9339 9.456V6.516C12.9339 6.372 12.9779 6.256 13.0659 6.168C13.1539 6.08 13.2739 6.036 13.4259 6.036ZM15.2925 12.06C15.0925 12.076 14.9405 12.048 14.8365 11.976C14.7325 11.904 14.6805 11.796 14.6805 11.652C14.6805 11.388 14.8285 11.252 15.1245 11.244L15.4845 11.22C15.8925 11.196 16.1965 11.072 16.3965 10.848C16.5965 10.616 16.6965 10.248 16.6965 9.744V3.984C16.6965 3.832 16.7445 3.712 16.8405 3.624C16.9365 3.528 17.0525 3.48 17.1885 3.48C17.3405 3.48 17.4605 3.528 17.5485 3.624C17.6365 3.712 17.6805 3.832 17.6805 3.984V9.756C17.6805 10.492 17.5125 11.048 17.1765 11.424C16.8405 11.792 16.3325 11.996 15.6525 12.036L15.2925 12.06ZM22.0506 12.084C21.4986 12.084 21.0106 11.96 20.5866 11.712C20.1706 11.464 19.8466 11.112 19.6146 10.656C19.3906 10.192 19.2786 9.656 19.2786 9.048C19.2786 8.44 19.3906 7.908 19.6146 7.452C19.8466 6.988 20.1706 6.632 20.5866 6.384C21.0106 6.136 21.4986 6.012 22.0506 6.012C22.6026 6.012 23.0906 6.136 23.5146 6.384C23.9386 6.632 24.2626 6.988 24.4866 7.452C24.7186 7.908 24.8346 8.44 24.8346 9.048C24.8346 9.656 24.7186 10.192 24.4866 10.656C24.2626 11.112 23.9386 11.464 23.5146 11.712C23.0906 11.96 22.6026 12.084 22.0506 12.084ZM22.0506 11.28C22.6266 11.28 23.0666 11.092 23.3706 10.716C23.6826 10.332 23.8386 9.776 23.8386 9.048C23.8386 8.336 23.6826 7.788 23.3706 7.404C23.0586 7.012 22.6186 6.816 22.0506 6.816C21.4826 6.816 21.0426 7.012 20.7306 7.404C20.4186 7.788 20.2626 8.336 20.2626 9.048C20.2626 9.768 20.4146 10.32 20.7186 10.704C21.0306 11.088 21.4746 11.28 22.0506 11.28Z" fill="black"/>
<path d="M32.2206 12.096C31.6206 12.096 31.0446 12.008 30.4926 11.832C29.9486 11.648 29.5126 11.404 29.1846 11.1C29.0646 10.988 29.0046 10.848 29.0046 10.68C29.0046 10.568 29.0366 10.472 29.1006 10.392C29.1646 10.304 29.2406 10.26 29.3286 10.26C29.4326 10.26 29.5446 10.304 29.6646 10.392C30.4086 10.968 31.2566 11.256 32.2086 11.256C32.8966 11.256 33.4246 11.124 33.7926 10.86C34.1606 10.596 34.3446 10.22 34.3446 9.732C34.3446 9.452 34.2566 9.228 34.0806 9.06C33.9046 8.884 33.6726 8.744 33.3846 8.64C33.0966 8.536 32.7086 8.428 32.2206 8.316C31.5646 8.164 31.0246 8.004 30.6006 7.836C30.1846 7.668 29.8446 7.428 29.5806 7.116C29.3246 6.804 29.1966 6.396 29.1966 5.892C29.1966 5.412 29.3246 4.988 29.5806 4.62C29.8446 4.244 30.2086 3.956 30.6726 3.756C31.1446 3.548 31.6806 3.444 32.2806 3.444C32.8406 3.444 33.3606 3.532 33.8406 3.708C34.3286 3.876 34.7366 4.12 35.0646 4.44C35.1926 4.568 35.2566 4.708 35.2566 4.86C35.2566 4.972 35.2246 5.072 35.1606 5.16C35.0966 5.24 35.0206 5.28 34.9326 5.28C34.8446 5.28 34.7286 5.236 34.5846 5.148C34.1926 4.828 33.8286 4.604 33.4926 4.476C33.1566 4.348 32.7526 4.284 32.2806 4.284C31.6166 4.284 31.1006 4.424 30.7326 4.704C30.3646 4.976 30.1806 5.36 30.1806 5.856C30.1806 6.28 30.3406 6.6 30.6606 6.816C30.9886 7.024 31.4886 7.208 32.1606 7.368C32.8886 7.544 33.4606 7.708 33.8766 7.86C34.2926 8.004 34.6366 8.224 34.9086 8.52C35.1886 8.816 35.3286 9.212 35.3286 9.708C35.3286 10.18 35.1966 10.596 34.9326 10.956C34.6766 11.316 34.3126 11.596 33.8406 11.796C33.3686 11.996 32.8286 12.096 32.2206 12.096ZM39.4477 11.292C39.7277 11.316 39.8677 11.444 39.8677 11.676C39.8677 11.812 39.8157 11.916 39.7117 11.988C39.6157 12.052 39.4677 12.076 39.2677 12.06L38.9437 12.036C38.3037 11.988 37.8317 11.796 37.5277 11.46C37.2237 11.124 37.0717 10.616 37.0717 9.936V6.924H36.2677C36.1317 6.924 36.0237 6.892 35.9437 6.828C35.8717 6.756 35.8357 6.664 35.8357 6.552C35.8357 6.432 35.8717 6.336 35.9437 6.264C36.0237 6.192 36.1317 6.156 36.2677 6.156H37.0717V4.8C37.0717 4.648 37.1157 4.532 37.2037 4.452C37.2917 4.364 37.4117 4.32 37.5637 4.32C37.7077 4.32 37.8237 4.364 37.9117 4.452C37.9997 4.532 38.0437 4.648 38.0437 4.8V6.156H39.3757C39.5037 6.156 39.6037 6.192 39.6757 6.264C39.7557 6.336 39.7957 6.432 39.7957 6.552C39.7957 6.664 39.7557 6.756 39.6757 6.828C39.6037 6.892 39.5037 6.924 39.3757 6.924H38.0437V9.984C38.0437 10.424 38.1317 10.744 38.3077 10.944C38.4917 11.136 38.7637 11.244 39.1237 11.268L39.4477 11.292ZM45.2658 6.036C45.4178 6.036 45.5338 6.08 45.6138 6.168C45.7018 6.256 45.7458 6.372 45.7458 6.516V11.592C45.7458 11.728 45.7018 11.84 45.6138 11.928C45.5338 12.016 45.4178 12.06 45.2658 12.06C45.1218 12.06 45.0058 12.02 44.9178 11.94C44.8378 11.852 44.7978 11.74 44.7978 11.604V11.004C44.6138 11.356 44.3538 11.624 44.0178 11.808C43.6898 11.992 43.3178 12.084 42.9018 12.084C42.2058 12.084 41.6818 11.892 41.3298 11.508C40.9778 11.116 40.8018 10.54 40.8018 9.78V6.516C40.8018 6.372 40.8458 6.256 40.9338 6.168C41.0218 6.08 41.1418 6.036 41.2938 6.036C41.4458 6.036 41.5618 6.08 41.6418 6.168C41.7298 6.256 41.7738 6.372 41.7738 6.516V9.756C41.7738 10.276 41.8778 10.66 42.0858 10.908C42.2938 11.148 42.6218 11.268 43.0698 11.268C43.5818 11.268 43.9938 11.104 44.3058 10.776C44.6178 10.44 44.7738 10 44.7738 9.456V6.516C44.7738 6.372 44.8178 6.256 44.9058 6.168C44.9938 6.08 45.1138 6.036 45.2658 6.036ZM52.2443 3.48C52.3963 3.48 52.5163 3.524 52.6043 3.612C52.6923 3.7 52.7363 3.812 52.7363 3.948V11.58C52.7363 11.724 52.6923 11.84 52.6043 11.928C52.5163 12.016 52.3963 12.06 52.2443 12.06C52.0923 12.06 51.9723 12.016 51.8843 11.928C51.8043 11.84 51.7643 11.724 51.7643 11.58V10.932C51.5883 11.3 51.3283 11.584 50.9843 11.784C50.6483 11.984 50.2523 12.084 49.7963 12.084C49.2843 12.084 48.8323 11.956 48.4403 11.7C48.0483 11.444 47.7443 11.088 47.5283 10.632C47.3123 10.168 47.2043 9.632 47.2043 9.024C47.2043 8.424 47.3123 7.896 47.5283 7.44C47.7443 6.984 48.0483 6.632 48.4403 6.384C48.8323 6.136 49.2843 6.012 49.7963 6.012C50.2523 6.012 50.6483 6.112 50.9843 6.312C51.3283 6.512 51.5883 6.796 51.7643 7.164V3.948C51.7643 3.804 51.8043 3.692 51.8843 3.612C51.9723 3.524 52.0923 3.48 52.2443 3.48ZM49.9883 11.28C50.5563 11.28 50.9923 11.088 51.2963 10.704C51.6083 10.312 51.7643 9.76 51.7643 9.048C51.7643 8.336 51.6083 7.788 51.2963 7.404C50.9923 7.02 50.5563 6.828 49.9883 6.828C49.4203 6.828 48.9763 7.02 48.6563 7.404C48.3443 7.788 48.1883 8.328 48.1883 9.024C48.1883 9.736 48.3443 10.292 48.6563 10.692C48.9763 11.084 49.4203 11.28 49.9883 11.28ZM55.0287 12.06C54.8847 12.06 54.7647 12.02 54.6687 11.94C54.5807 11.852 54.5367 11.732 54.5367 11.58V6.516C54.5367 6.364 54.5807 6.248 54.6687 6.168C54.7647 6.08 54.8847 6.036 55.0287 6.036C55.1727 6.036 55.2887 6.08 55.3767 6.168C55.4647 6.248 55.5087 6.364 55.5087 6.516V11.58C55.5087 11.74 55.4647 11.86 55.3767 11.94C55.2887 12.02 55.1727 12.06 55.0287 12.06ZM55.0287 4.776C54.8367 4.776 54.6807 4.72 54.5607 4.608C54.4407 4.496 54.3807 4.348 54.3807 4.164C54.3807 3.988 54.4407 3.844 54.5607 3.732C54.6807 3.62 54.8367 3.564 55.0287 3.564C55.2207 3.564 55.3767 3.62 55.4967 3.732C55.6167 3.844 55.6767 3.988 55.6767 4.164C55.6767 4.348 55.6167 4.496 55.4967 4.608C55.3767 4.72 55.2207 4.776 55.0287 4.776ZM59.7498 12.084C59.1978 12.084 58.7098 11.96 58.2858 11.712C57.8698 11.464 57.5458 11.112 57.3138 10.656C57.0898 10.192 56.9778 9.656 56.9778 9.048C56.9778 8.44 57.0898 7.908 57.3138 7.452C57.5458 6.988 57.8698 6.632 58.2858 6.384C58.7098 6.136 59.1978 6.012 59.7498 6.012C60.3018 6.012 60.7898 6.136 61.2138 6.384C61.6378 6.632 61.9618 6.988 62.1858 7.452C62.4178 7.908 62.5338 8.44 62.5338 9.048C62.5338 9.656 62.4178 10.192 62.1858 10.656C61.9618 11.112 61.6378 11.464 61.2138 11.712C60.7898 11.96 60.3018 12.084 59.7498 12.084ZM59.7498 11.28C60.3258 11.28 60.7658 11.092 61.0698 10.716C61.3818 10.332 61.5378 9.776 61.5378 9.048C61.5378 8.336 61.3818 7.788 61.0698 7.404C60.7578 7.012 60.3178 6.816 59.7498 6.816C59.1818 6.816 58.7418 7.012 58.4298 7.404C58.1178 7.788 57.9618 8.336 57.9618 9.048C57.9618 9.768 58.1138 10.32 58.4178 10.704C58.7298 11.088 59.1738 11.28 59.7498 11.28Z" fill="black" fill-opacity="0.88"/>
<path d="M77.8065 2.35483H79.871V2.58064L79.0968 3.25807L79.871 3.93551V4.16132H77.8065V2.35483Z" fill="#FFCC22"/>
<path d="M76.5162 2.58063H67.742V6.19351H76.5162V2.58063Z" fill="#FFCC22"/>
<path d="M77.8065 13.1936H78.0645V1H67.4839C66.7724 1 66.1935 1.50649 66.1935 2.12906V8.45162H65.6774C64.8235 8.45162 64.129 9.05925 64.129 9.80644C64.129 10.5536 64.8235 11.1613 65.6774 11.1613H66.1935V13.8709C66.1935 14.4935 66.7724 15 67.4839 15H78.0645V14.5484H77.8065C77.3796 14.5484 77.0323 14.2444 77.0323 13.8709C77.0323 13.4975 77.3796 13.1936 77.8065 13.1936ZM66.7097 10.7097H66.1935V8.90324H66.7097V10.7097ZM67.2258 10.0323H74.7097V10.7097H67.2258V10.0323ZM75.2258 9.11616L76.3301 9.80644L75.2258 10.4967V9.11616ZM74.7097 9.58063H67.2258V8.9032H74.7097V9.58063ZM64.6452 9.80644C64.6452 9.3083 65.1082 8.9032 65.6775 8.9032V10.7096C65.1082 10.7097 64.6452 10.3046 64.6452 9.80644ZM76.7747 14.5484H67.4839C67.0571 14.5484 66.7097 14.2444 66.7097 13.8709C66.7097 13.4975 67.0571 13.1935 67.4839 13.1935H76.7747C76.6124 13.3823 76.5162 13.6169 76.5162 13.8709C76.5161 14.125 76.6124 14.3596 76.7747 14.5484ZM67.4839 12.7419C67.1923 12.7419 66.926 12.8302 66.7097 12.9736V11.1613H75.0503L77.2181 9.80649L75.0503 8.45167H66.7097V2.12906C66.7097 1.75558 67.0571 1.45162 67.4839 1.45162H77.5484V12.7419H67.4839Z" fill="#333333"/>
</svg>
