<svg width="45" height="50" viewBox="0 0 16 16" fill="none" xmlns="http://www.w3.org/2000/svg">
<path d="M13.8065 1.35482H15.871V1.58063L15.0968 2.25806L15.871 2.9355V3.16131H13.8065V1.35482Z" fill="#FFCC22"/>
<path d="M12.5162 1.58063H3.74196V5.19351H12.5162V1.58063Z" fill="#FFCC22"/>
<path d="M13.8065 12.1936H14.0645V0H3.48389C2.77238 0 2.19354 0.506486 2.19354 1.12906V7.45162H1.6774C0.823474 7.45162 0.129038 8.05925 0.129038 8.80644C0.129038 9.55363 0.823474 10.1613 1.6774 10.1613H2.19354V12.8709C2.19354 13.4935 2.77238 14 3.48389 14H14.0645V13.5484H13.8065C13.3796 13.5484 13.0323 13.2444 13.0323 12.8709C13.0323 12.4975 13.3796 12.1936 13.8065 12.1936ZM2.70968 9.70968H2.19354V7.90324H2.70968V9.70968ZM3.22582 9.03225H10.7097V9.70968H3.22582V9.03225ZM11.2258 8.11616L12.3301 8.80644L11.2258 9.49672V8.11616ZM10.7097 8.58063H3.22582V7.9032H10.7097V8.58063ZM0.645178 8.80644C0.645178 8.3083 1.10815 7.9032 1.67746 7.9032V9.70964C1.10815 9.70968 0.645178 9.30458 0.645178 8.80644ZM12.7747 13.5484H3.48389C3.05706 13.5484 2.70968 13.2444 2.70968 12.8709C2.70968 12.4975 3.05706 12.1935 3.48389 12.1935H12.7747C12.6124 12.3823 12.5162 12.6169 12.5162 12.8709C12.5161 13.125 12.6124 13.3596 12.7747 13.5484ZM3.48389 11.7419C3.19227 11.7419 2.92597 11.8302 2.70968 11.9736V10.1613H11.0503L13.2181 8.80649L11.0503 7.45167H2.70968V1.12906C2.70968 0.75558 3.05706 0.451622 3.48389 0.451622H13.5484V11.7419H3.48389Z" fill="white"/>
</svg>