<svg width="45" height="50" viewBox="0 0 25 25" fill="none" xmlns="http://www.w3.org/2000/svg">
<path d="M20.7097 2.03223H23.8065V2.37095L22.6451 3.3871L23.8065 4.40325V4.74196H20.7097V2.03223Z" fill="#FFCC22"/>
<path d="M18.7742 2.37095H5.61294V7.79027H18.7742V2.37095Z" fill="#FFCC22"/>
<path d="M20.7097 18.2903H21.0968V0H5.22584C4.15857 0 3.29031 0.759729 3.29031 1.69358V11.1774H2.5161C1.23521 11.1774 0.193557 12.0889 0.193557 13.2097C0.193557 14.3304 1.23521 15.2419 2.5161 15.2419H3.29031V19.3064C3.29031 20.2403 4.15857 21 5.22584 21H21.0968V20.3226H20.7097C20.0694 20.3226 19.5484 19.8666 19.5484 19.3064C19.5484 18.7462 20.0694 18.2903 20.7097 18.2903ZM4.06452 14.5645H3.29031V11.8549H4.06452V14.5645ZM4.83873 13.5484H16.0645V14.5645H4.83873V13.5484ZM16.8387 12.1742L18.4951 13.2097L16.8387 14.2451V12.1742ZM16.0645 12.8709H4.83873V11.8548H16.0645V12.8709ZM0.967766 13.2097C0.967766 12.4625 1.66223 11.8548 2.51618 11.8548V14.5645C1.66223 14.5645 0.967766 13.9569 0.967766 13.2097ZM19.1621 20.3226H5.22584C4.58559 20.3226 4.06452 19.8666 4.06452 19.3064C4.06452 18.7462 4.58559 18.2903 5.22584 18.2903H19.1621C18.9186 18.5734 18.7743 18.9254 18.7743 19.3064C18.7742 19.6875 18.9186 20.0394 19.1621 20.3226ZM5.22584 17.6129C4.78841 17.6129 4.38895 17.7453 4.06452 17.9604V15.242H16.5755L19.8271 13.2097L16.5755 11.1775H4.06452V1.69358C4.06452 1.13337 4.58559 0.677433 5.22584 0.677433H20.3226V17.6129H5.22584Z" fill="#333333"/>
</svg>
